<svg width="22" height="15" viewBox="0 0 22 15" fill="none" xmlns="http://www.w3.org/2000/svg">
<path d="M1.99062 4.54984C1.99062 4.95728 1.63522 5.29676 1.20867 5.29676H0.782119C0.355571 5.29676 0 4.95728 0 4.54984C0 4.14239 0.355571 3.80291 0.782119 3.80291H1.20867C1.63522 3.80291 1.99062 4.14239 1.99062 4.54984ZM21.2564 4.34612C23.1047 8.08107 21.3985 12.5629 17.3463 14.3285C13.4364 16.0262 8.74435 14.3964 6.967 10.6615C6.6116 9.91456 6.39833 9.09968 6.32718 8.28479H4.76311C4.33657 8.28479 3.98116 7.94514 3.98116 7.5377C3.98116 7.13026 4.33657 6.79078 4.76311 6.79078H7.03815C7.4647 6.79078 7.8201 6.45129 7.8201 6.04385C7.8201 5.63641 7.4647 5.29676 7.03815 5.29676H3.41249C2.98594 5.29676 2.63037 4.95728 2.63037 4.54984C2.63037 4.14239 2.98594 3.80291 3.41249 3.80291H8.45992C8.88647 3.80291 9.24187 3.46327 9.24187 3.05582C9.24187 2.64838 8.88647 2.3089 8.45992 2.3089H6.39833C5.75851 2.3089 5.18966 1.83349 5.18966 1.15453C5.18966 0.543366 5.68736 0 6.39833 0H14.4316C17.2753 0.135923 19.9767 1.69773 21.2564 4.34612ZM12.2719 3.59704C10.024 4.58305 9.03829 7.12305 10.0705 9.27028C11.1028 11.4175 13.7619 12.359 16.0098 11.373C18.2579 10.387 19.2434 7.847 18.2111 5.69977C17.1789 3.55255 14.5198 2.61103 12.2719 3.59704ZM15.8534 5.02519L17.2752 7.33409C17.3464 7.46985 17.3464 7.53781 17.2752 7.67357L15.8534 9.98247C15.7823 10.1182 15.6402 10.1182 15.569 10.1182H12.7965C12.6543 10.1182 12.5832 10.0503 12.5122 9.98247L11.0903 7.67357C11.0193 7.53781 11.0193 7.46985 11.0903 7.33409L12.5122 5.02519C12.5832 4.88943 12.7255 4.88943 12.7965 4.88943H15.569C15.7113 4.82147 15.7823 4.88943 15.8534 5.02519Z" fill="#8E9297"/>
</svg>
